<svg id="Capa_1" enable-background="new 0 0 512 512" height="512" viewBox="0 0 512 512" width="512" xmlns="http://www.w3.org/2000/svg"><g><g><path d="m65.042 303.53h341.102c4.142 0 7.5-3.357 7.5-7.5s-3.358-7.5-7.5-7.5h-341.102c-4.142 0-7.5 3.357-7.5 7.5s3.358 7.5 7.5 7.5z"/><path d="m65.042 233.712h207.574c4.142 0 7.5-3.357 7.5-7.5s-3.358-7.5-7.5-7.5h-207.574c-4.142 0-7.5 3.357-7.5 7.5s3.358 7.5 7.5 7.5z"/><path d="m65.042 163.894h207.574c4.142 0 7.5-3.357 7.5-7.5s-3.358-7.5-7.5-7.5h-207.574c-4.142 0-7.5 3.357-7.5 7.5s3.358 7.5 7.5 7.5z"/><path d="m411.165 25.582c-55.601 0-100.835 45.234-100.835 100.835 0 55.602 45.234 100.836 100.835 100.836s100.835-45.235 100.835-100.836-45.234-100.835-100.835-100.835zm0 186.671c-47.33 0-85.835-38.506-85.835-85.836 0-47.329 38.506-85.835 85.835-85.835s85.835 38.505 85.835 85.835-38.506 85.836-85.835 85.836z"/><path d="m463.687 231.986c-4.142 0-7.5 3.357-7.5 7.5v90.143c0 21.258-17.294 38.552-38.552 38.552h-190.371c-8.615 0-16.649 4.631-20.967 12.086l-51.096 88.216c-2.264 3.909-7.909 3.918-10.179 0l-51.095-88.216c-4.318-7.455-12.352-12.086-20.967-12.086h-19.408c-21.258-.001-38.552-17.295-38.552-38.552v-204.705c0-21.258 17.294-38.553 38.552-38.553h240.686c4.142 0 7.5-3.357 7.5-7.5s-3.358-7.5-7.5-7.5h-240.686c-29.529.001-53.552 24.024-53.552 53.553v204.704c0 29.528 24.023 53.552 53.552 53.552h19.407c3.282 0 6.343 1.764 7.988 4.604l51.095 88.216c8.04 13.883 28.088 13.901 36.138 0l51.096-88.216c1.645-2.84 4.706-4.604 7.988-4.604h190.371c29.529 0 53.552-24.023 53.552-53.552v-90.143c0-4.142-3.358-7.499-7.5-7.499z"/><path d="m413.122 69.307h-21.207c-4.142 0-7.5 3.357-7.5 7.5s3.358 7.5 7.5 7.5h13.707v91.72c0 4.143 3.358 7.5 7.5 7.5s7.5-3.357 7.5-7.5v-99.22c0-4.142-3.358-7.5-7.5-7.5z"/></g></g></svg>