<?xml version="1.0" encoding="utf-8"?>
<!-- Generator: Adobe Illustrator 17.0.0, SVG Export Plug-In . SVG Version: 6.00 Build 0)  -->
<!DOCTYPE svg PUBLIC "-//W3C//DTD SVG 1.1//EN" "http://www.w3.org/Graphics/SVG/1.1/DTD/svg11.dtd">
<svg version="1.1" id="Capa_1" xmlns="http://www.w3.org/2000/svg" xmlns:xlink="http://www.w3.org/1999/xlink" x="0px" y="0px"
	 width="486.002px" height="270px" viewBox="109.278 0 486.002 270" enable-background="new 109.278 0 486.002 270"
	 xml:space="preserve">
<g>
	<path d="M595.279,24.74c0,11.741-9.518,21.26-21.26,21.26h-443.48c-11.741,0-21.26-9.518-21.26-21.26v-3.48
		c0-11.741,9.518-21.26,21.26-21.26h443.48c11.741,0,21.26,9.518,21.26,21.26V24.74z"/>
	<path d="M595.279,248.74c0,11.742-9.518,21.26-21.26,21.26h-443.48c-11.741,0-21.26-9.518-21.26-21.26v-3.48
		c0-11.741,9.518-21.26,21.26-21.26h443.48c11.741,0,21.26,9.518,21.26,21.26V248.74z"/>
	<path d="M242.14,136.74c0,11.741,9.518,21.26,21.26,21.26h310.619c11.741,0,21.26-9.518,21.26-21.26v-3.48
		c0-11.741-9.518-21.26-21.26-21.26H263.4c-11.741,0-21.26,9.518-21.26,21.26V136.74z"/>
</g>
</svg>
